<?xml version="1.0" encoding="UTF-8" standalone="no"?>
<!--
  PDFreactor circle mark, extracted from the official RealObjects PDFreactor(R)
  logo (the leftmost "logo" group: the disc, the three petals, the inner
  circles, and the red "pdf" badge). The "RealObjects PDFreactor" wordmark was
  dropped and the viewBox cropped to the mark's bounds so it renders cleanly at
  widget size next to the health-widget title.

  The PDFreactor logo is Copyright (c) RealObjects GmbH. All rights reserved.
  It is NOT covered by this repository's open-source license and may not be
  used outside this plugin without RealObjects' permission.
-->
<svg viewBox="15 45 440 410" xmlns="http://www.w3.org/2000/svg" role="img" aria-label="PDFreactor">
 <circle r="199.21254" cy="249.21253" cx="251.53536" fill="#d8dce3"/>
 <g fill="#0b379f">
  <path d="m252.40199,250.07899l-190.55159,0c1.4436,-67.84799 33.20211,-127.034 95.27561,-164.56719l95.27599,164.56719z"/>
  <path d="m246.96899,249.873l95.27499,-165.02191c58.03601,35.1739 93.414,92.27089 94.88202,164.79489l-190.15701,0.22701l0,0l0,0.00002z"/>
  <path d="m249.606,245.52l95.27599,165.02199c-59.47998,32.67401 -126.61598,34.76401 -190.15698,-0.22699l94.881,-164.795z"/>
 </g>
 <circle stroke="#d8dce3" r="181.88969" cy="249.21253" cx="251.53536" stroke-width="20" fill="none"/>
 <circle stroke="#d8dce3" r="50.2362" cy="249.21253" cx="251.53536" stroke-width="20" fill="#003399"/>
 <rect height="64.29919" width="149.25192" y="284.5196" x="20" fill="#e41d03"/>
 <g fill="#ffffff">
  <path d="m71.0123,307.22699c0,1.98801 -0.344,3.888 -1.032,5.69901c-0.688,1.76599 -1.6984,3.33499 -3.0313,4.70401c-1.29,1.32498 -2.8809,2.38501 -4.7727,3.17999c-1.849,0.75101 -3.9558,1.12701 -6.3207,1.12701l-8.836,0l0,17.75699l-8.965,0l0,-47.17599l17.801,0c2.3649,0 4.4717,0.39798 6.3207,1.19299c1.8918,0.75101 3.4827,1.811 4.7727,3.17999c1.3329,1.32501 2.3433,2.89301 3.0313,4.70401c0.688,1.767 1.0319,3.64499 1.032,5.63199m-8.965,0c0,-1.94299 -0.602,-3.51099 -1.8059,-4.70398c-1.161,-1.19302 -2.7734,-1.789 -4.8373,-1.789l-8.3845,0l0,12.91998l8.3845,0c2.0639,0 3.6763,-0.57401 4.8373,-1.72198c1.2039,-1.19299 1.8059,-2.76102 1.8059,-4.70502"/>
  <path d="m111.961,321.20801c0,1.72299 -0.129,3.401 -0.386,5.035c-0.258,1.63498 -0.71,3.203 -1.355,4.70499c-0.645,1.50201 -1.612,2.91501 -2.902,4.23999c-1.505,1.54602 -3.311,2.69501 -5.418,3.44601c-2.0639,0.70599 -4.2997,1.06 -6.7076,1.06l-16.5756,0l0,-47.17599l16.5756,0c2.40791,0 4.6437,0.375 6.7076,1.12601c2.107,0.707 3.913,1.83398 5.418,3.37997c1.29,1.32501 2.257,2.716 2.902,4.17401c0.645,1.45801 1.097,2.98099 1.355,4.57199c0.257,1.59 0.386,3.246 0.386,4.96902l0,10.46899m-8.965,-5.30099c0,-1.767 -0.021,-3.29102 -0.064,-4.57202c-0.043,-1.32498 -0.129,-2.47299 -0.258,-3.44498c-0.12901,-0.97202 -0.32201,-1.789 -0.58,-2.45203c-0.258,-0.66199 -0.60201,-1.259 -1.03201,-1.789c-0.77399,-0.97098 -1.6988,-1.69998 -2.7738,-2.18597c-1.0749,-0.48602 -2.3864,-0.729 -3.9342,-0.729l-6.77219,0l0,30.74399l6.77219,0c1.54781,0 2.85931,-0.24301 3.9342,-0.729c1.075,-0.48599 1.9998,-1.215 2.7738,-2.18698c0.817,-1.06 1.333,-2.539 1.548,-4.43903c0.257,-1.89899 0.386,-4.638 0.386,-8.21597"/>
  <path d="m130.034,300.73401l0,11.595l18.123,0l0,8.216l-18.123,0l0,19.14899l-8.965,0l0,-47.17599l30.248,0l0,8.216l-21.283,0"/>
 </g>
</svg>
